<svg width="215" height="215" viewBox="0 0 215 215" fill="none" xmlns="http://www.w3.org/2000/svg">
<path d="M105 116.001C106.933 116.001 108.5 117.568 108.5 119.501C108.5 121.433 106.933 123 105 123.001C103.068 123.001 101.501 121.433 101.5 119.501C101.5 117.568 103.067 116.001 105 116.001Z" fill="#AFBF5B"/>
<path d="M68.228 106.355C68.8606 104.824 70.6147 104.096 72.146 104.728L95.146 114.228C96.6768 114.861 97.4053 116.615 96.7729 118.146C96.1403 119.677 94.3861 120.405 92.855 119.773L69.855 110.273C68.3238 109.64 67.5956 107.886 68.228 106.355Z" fill="#AFBF5B"/>
<path d="M157.551 90.3736C159.002 89.5735 160.827 90.1008 161.627 91.5514C162.427 93.0019 161.9 94.8272 160.45 95.6275L116.95 119.628C115.499 120.428 113.674 119.9 112.874 118.45C112.073 116.999 112.601 115.174 114.051 114.374L157.551 90.3736Z" fill="#AFBF5B"/>
<path d="M138.832 204.716C139.9 207.398 138.484 210.435 135.699 211.192C129.26 212.943 122.58 214.111 115.719 214.635C112.909 214.85 110.58 212.577 110.58 209.759V187.433C110.58 184.752 112.698 182.566 115.364 182.286C118.442 181.963 121.465 181.455 124.422 180.772C126.941 180.19 129.568 181.449 130.525 183.851L138.832 204.716Z" fill="#B57338"/>
<path d="M77.7301 181.789C78.8268 179.35 81.6431 178.224 84.1866 179.048C88.0137 180.289 91.9751 181.231 96.0436 181.848C98.602 182.236 100.58 184.378 100.58 186.965V209.415C100.58 212.299 98.1436 214.596 95.277 214.274C86.948 213.338 78.9071 211.45 71.2654 208.722C68.6068 207.772 67.4085 204.739 68.5664 202.165L77.7301 181.789Z" fill="#2E3A06"/>
<path d="M174.973 184.144C177.009 186.18 176.916 189.519 174.671 191.321C168.569 196.22 161.921 200.466 154.833 203.955C152.302 205.201 149.292 203.951 148.249 201.331L139.986 180.579C138.996 178.091 140.15 175.28 142.517 174.03C145.93 172.227 149.188 170.17 152.265 167.883C154.348 166.334 157.273 166.444 159.109 168.28L174.973 184.144Z" fill="#BA7940"/>
<path d="M53.6472 166.682C55.5298 164.799 58.5469 164.737 60.631 166.394C62.5902 167.951 64.6287 169.412 66.7395 170.771C68.9174 172.173 69.8456 174.941 68.7832 177.303L59.575 197.777C58.3922 200.407 55.2299 201.503 52.7484 200.035C47.5543 196.961 42.6414 193.462 38.0572 189.587C35.8949 187.759 35.8435 184.486 37.8456 182.484L53.6472 166.682Z" fill="#454F15"/>
<path d="M201.084 148.462C203.774 149.461 205.083 152.519 203.81 155.091C199.884 163.02 195.008 170.394 189.331 177.067C187.5 179.219 184.235 179.266 182.237 177.268L166.444 161.474C164.556 159.586 164.499 156.558 166.169 154.474C168.989 150.955 171.498 147.177 173.657 143.182C174.898 140.887 177.616 139.751 180.062 140.659L201.084 148.462Z" fill="#D97115"/>
<path d="M35.4418 142.294C37.8825 141.278 40.6771 142.347 41.9856 144.645C43.5497 147.391 45.2815 150.029 47.1673 152.544C48.7293 154.628 48.6248 157.565 46.7833 159.406L30.9287 175.261C28.8972 177.292 25.5665 177.204 23.7606 174.97C19.4011 169.576 15.5521 163.752 12.2886 157.571C10.9602 155.055 12.1561 151.988 14.7825 150.894L35.4418 142.294Z" fill="#5C6424"/>
<path d="M27.6911 113.011C30.3227 112.996 32.4972 115.027 32.85 117.635C33.2708 120.747 33.8819 123.798 34.6711 126.777C35.3419 129.309 34.1286 132.008 31.7104 133.014L11.0223 141.627C8.38028 142.727 5.34478 141.392 4.51529 138.653C2.54233 132.138 1.17063 125.362 0.465796 118.389C0.178864 115.551 2.45143 113.153 5.30442 113.137L27.6911 113.011Z" fill="#76802E"/>
<path d="M209.582 111.991C212.435 111.975 214.734 114.348 214.479 117.19C213.9 123.633 212.753 129.912 211.088 135.976C210.337 138.713 207.378 140.132 204.718 139.144L183.752 131.362C181.264 130.438 179.949 127.736 180.571 125.156C181.23 122.425 181.739 119.636 182.091 116.798C182.414 114.186 184.566 112.131 187.197 112.116L209.582 111.991Z" fill="#D97115"/>
<path d="M31.6984 82.0146C34.1028 83.0264 35.3073 85.7127 34.6429 88.2352C33.7795 91.5131 33.1317 94.8785 32.7157 98.3153C32.3987 100.933 30.2446 102.997 27.6075 103.012L5.22905 103.137C2.3798 103.153 0.0818735 100.786 0.330612 97.9478C0.984894 90.4816 2.40269 83.2344 4.505 76.2844C5.33584 73.5378 8.38384 72.2037 11.0288 73.3167L31.6984 82.0146Z" fill="#9AA640"/>
<path d="M110.58 5.14661C110.58 2.32859 112.91 0.0556405 115.72 0.270296C167.667 4.23874 209.285 45.1266 214.389 96.7478C214.669 99.583 212.398 101.975 209.549 101.991L187.169 102.116C184.532 102.131 182.354 100.088 182.008 97.4738C177.47 63.2238 149.897 36.2459 115.368 32.6194C112.702 32.3393 110.58 30.1531 110.58 27.4721V5.14661Z" fill="#E0822F"/>
<path d="M46.5883 55.7592C48.424 57.5949 48.5342 60.5198 46.9855 62.6034C45.148 65.0754 43.4588 67.6642 41.9306 70.3564C40.6202 72.6652 37.8105 73.7371 35.3636 72.7074L14.75 64.0332C12.135 62.9328 10.9486 59.8734 12.2724 57.3641C15.4862 51.2723 19.2679 45.5265 23.5471 40.1972C25.3495 37.9525 28.6884 37.8593 30.7241 39.895L46.5883 55.7592Z" fill="#B7C553"/>
<path d="M71.4633 36.197C72.4272 38.5956 71.3937 41.3181 69.1685 42.6339C66.0969 44.4501 63.1654 46.4785 60.3945 48.6988C58.3105 50.3687 55.282 50.3123 53.3937 48.4239L37.6005 32.6307C35.6025 30.6328 35.6488 27.3681 37.801 25.5372C43.5031 20.6865 49.7178 16.4204 56.3529 12.832C58.8924 11.4586 62.0135 12.681 63.09 15.3598L71.4633 36.197Z" fill="#CBD673"/>
<path d="M100.58 27.9398C100.58 30.5274 98.602 32.6694 96.0436 33.0572C92.936 33.5283 89.8908 34.1894 86.9202 35.0284C84.3426 35.7563 81.5668 34.5173 80.568 32.032L72.2391 11.306C71.1877 8.68959 72.5035 5.71036 75.1939 4.86614C81.6474 2.84107 88.363 1.40805 95.2771 0.630957C98.1436 0.308776 100.58 2.60599 100.58 5.49059V27.9398Z" fill="#D9E18E"/>
</svg>
