<svg width="94" height="94" viewBox="0 0 94 94" fill="none" xmlns="http://www.w3.org/2000/svg">
<path d="M26.7857 4.44923C22.8793 6.30261 19.2691 8.67889 16.0456 11.4876L24.2641 19.9197C26.3324 18.1844 28.6028 16.6822 31.0349 15.4536L26.7857 4.44923Z" fill="#606C38" fill-opacity="0.3"/>
<path d="M43.4075 11.8579C41.0643 12.0888 38.7885 12.5492 36.6028 13.2163L32.3609 2.23072C35.8862 1.08439 39.5944 0.343463 43.4305 0.0629515C43.4153 0.185266 43.4075 0.309864 43.4075 0.436288V11.8579Z" fill="#606C38" fill-opacity="0.3"/>
<path d="M82.0317 43.9363C80.5786 26.695 66.7161 12.9864 49.4075 11.7736V0.436288C49.4075 0.288104 49.3968 0.142429 49.376 0C73.2002 1.23275 92.3324 20.2065 93.815 43.9637C93.6818 43.9456 93.5457 43.9363 93.4075 43.9363H82.0317Z" fill="#BC6C25"/>
<path d="M80.6407 57.1977C81.3478 54.87 81.8206 52.4404 82.0317 49.9363H93.4075C93.5457 49.9363 93.6818 49.9269 93.815 49.9088C93.5637 53.9364 92.8051 57.8265 91.6024 61.5159L80.6407 57.1977Z" fill="#BC6C25"/>
<path d="M74.0733 69.4007C75.7552 67.3691 77.2137 65.1456 78.4108 62.768L89.3798 67.0891C87.573 70.8903 85.2709 74.4105 82.557 77.5663L74.0733 69.4007Z" fill="#BC6C25"/>
<path d="M63.2596 78.1721C65.6355 76.9258 67.8518 75.4163 69.8696 73.6823L78.3639 81.8581C75.2443 84.6699 71.7461 87.0696 67.955 88.9716L63.2596 78.1721Z" fill="#B68D40"/>
<path d="M49.4075 82.099C52.29 81.897 55.0769 81.3485 57.7269 80.4948L62.4302 91.3125C58.32 92.7502 53.9491 93.6329 49.4075 93.8709V82.099Z" fill="#B68D40"/>
<path d="M35.5199 80.3064C38.0334 81.1638 40.6746 81.7453 43.4075 82.0147V93.8079C39.0547 93.4875 34.8666 92.5742 30.9238 91.1485L35.5199 80.3064Z" fill="#4B5320"/>
<path d="M25.4043 74.87C26.8595 75.9919 28.4049 77.0027 30.0276 77.8895L25.4238 88.7499C22.6226 87.3077 19.985 85.5923 17.5464 83.639L25.4043 74.87Z" fill="#4B5320"/>
<path d="M16.1889 64.2384C17.5312 66.6166 19.1417 68.8232 20.9793 70.8173L13.1109 79.5981C10.1227 76.5067 7.55473 73.0065 5.49914 69.1895L16.1889 64.2384Z" fill="#AFBF5B" fill-opacity="0.6"/>
<path d="M11.7834 49.9363C12.0428 53.0139 12.6975 55.9789 13.6967 58.7804L2.99868 63.7353C1.33851 59.3986 0.302334 54.7532 0 49.9088C0.133258 49.9269 0.269298 49.9363 0.407521 49.9363H11.7834Z" fill="#BAD04B" fill-opacity="0.6"/>
<path d="M13.2342 36.4801C12.4939 38.8669 12.0003 41.3622 11.7834 43.9363H0.407521C0.269298 43.9363 0.133258 43.9456 4.11092e-10 43.9637C0.259945 39.7986 1.06238 35.7805 2.33749 31.9793L13.2342 36.4801Z" fill="#BAD04B" fill-opacity="0.6"/>
<path d="M20.0102 24.1514C18.2582 26.2177 16.7399 28.4884 15.4964 30.9228L4.60738 26.4252C6.50437 22.5203 8.92615 18.9175 11.781 15.7085L20.0102 24.1514Z" fill="#606C38" fill-opacity="0.3"/>
<circle cx="47" cy="47" r="2.5" fill="#AFBF5B" stroke="#AFBF5B"/>
<path d="M53 43L71 30" stroke="#AFBF5B" stroke-width="2" stroke-linecap="round"/>
<path d="M40 43L30 36" stroke="#AFBF5B" stroke-width="2" stroke-linecap="round"/>
</svg>
